{"title":"The Returned 2013 DVDRip Xvid AC3 LKRG","uid":10134041,"size":1181671132,"categoryP":"video","categoryS":"movies","magnet":"?xt=urn:btih:7907837beb0ee1b4aa2ca79f277e5ab05a7bff5a&amp;dn=The+Returned+2013+DVDRip+Xvid+AC3+LKRG&amp;tr=udp%3A%2F%2Ftracker.openbittorrent.com%3A80&amp;tr=udp%3A%2F%2Fopen.demonii.com%3A1337&amp;tr=udp%3A%2F%2Ftracker.coppersurfer.tk%3A6969&amp;tr=udp%3A%2F%2Fexodus.desync.com%3A6969","seeders":3,"leechers":0,"uploader":".BONE.","files":2,"time":1399930806,"description":"\nRuntime ..........: 1h 38mn\nFile Size ........: 1.10 GiB\nResolution .......: 720 x 352\nIMDb URL .........: http://www.imdb.com/title/tt2093270/?ref_=nv_sr_2\nGenre ............: Drama,Horror,Thriller\nLanguage .........: English\nSubtitles ........: None\nComplete name : The Returned 2013 DVDRip Xvid AC3 LKRGTR_LKRG.avi\nFormat : AVI\nFormat/Info : Audio Video Interleave\nFile size : 1.10 GiB\nDuration : 1h 38mn\nOverall bit rate : 1 605 Kbps\nWriting application : VirtualDubMod 1.5.10.2 (build 2540/release)\nWriting library : VirtualDubMod build 2540/release\nVideo\nID : 0\nFormat : MPEG-4 Visual\nFormat profile : Advanced Simple@L5\nFormat settings, BVOP : 2\nFormat settings, QPel : No\nFormat settings, GMC : No warppoints\nFormat settings, Matrix : Default (H.263)\nMuxing mode : Packed bitstream\nCodec ID : XVID\nCodec ID/Hint : XviD\nDuration : 1h 38mn\nBit rate : 1 147 Kbps\nWidth : 720 pixels\nHeight : 352 pixels\nDisplay aspect ratio : 6.294\nFrame rate : 23.976 fps\nColor space : YUV\nChroma subsampling : 4:2:0\nBit depth : 8 bits\nScan type : Progressive\nCompression mode : Lossy\nBits/(Pixel*Frame) : 0.189\nStream size : 806 MiB (71%)\nWriting library : XviD 1.2.1 (UTC 2008-12-04)\nAudio\nID : 1\nFormat : AC-3\nFormat/Info : Audio Coding 3\nMode extension : CM (complete main)\nFormat settings, Endianness : Big\nCodec ID : 2000\nDuration : 1h 38mn\nBit rate mode : Constant\nBit rate : 448 Kbps\nChannel(s) : 6 channels\nChannel positions : Front: L C R, Side: L R, LFE\nSampling rate : 48.0 KHz\nBit depth : 16 bits\nCompression mode : Lossy\nStream size : 315 MiB (28%)\nAlignment : Split accross interleaves\nInterleave, duration : 42 ms (1.00 video frame)\nInterleave, preload duration : 500 ms\n &lt;a href=&quot;\nhttp://i.imgur.com/gh5uwef.jpg&quot; rel=&quot;nofollow&quot; target=&quot;_NEW&quot;&gt;\nhttp://i.imgur.com/gh5uwef.jpg&lt;/a&gt; &lt;a href=&quot;\nhttp://i.imgur.com/UI0xaPj.jpg&quot; rel=&quot;nofollow&quot; target=&quot;_NEW&quot;&gt;\nhttp://i.imgur.com/UI0xaPj.jpg&lt;/a&gt; &lt;a href=&quot;\nhttp://i.imgur.com/ihBMWXU.jpg&quot; rel=&quot;nofollow&quot; target=&quot;_NEW&quot;&gt;\nhttp://i.imgur.com/ihBMWXU.jpg&lt;/a&gt; &lt;a href=&quot;\nhttp://i.imgur.com/f09fvLX.jpg&quot; rel=&quot;nofollow&quot; target=&quot;_NEW&quot;&gt;\nhttp://i.imgur.com/f09fvLX.jpg&lt;/a&gt;","torrent":{"xt":"urn:btih:7907837beb0ee1b4aa2ca79f277e5ab05a7bff5a","amp;dn":"The+Returned+2013+DVDRip+Xvid+AC3+LKRG","amp;tr":["udp%3A%2F%2Ftracker.openbittorrent.com%3A80","udp%3A%2F%2Fopen.demonii.com%3A1337","udp%3A%2F%2Ftracker.coppersurfer.tk%3A6969","udp%3A%2F%2Fexodus.desync.com%3A6969"],"infoHash":"7907837beb0ee1b4aa2ca79f277e5ab05a7bff5a","infoHashBuffer":{"type":"Buffer","data":[121,7,131,123,235,14,225,180,170,44,167,159,39,126,90,176,90,123,255,90]},"announce":[],"urlList":[]}}